<svg width="100" height="100" viewBox="0 0 24 24" fill="none" xmlns="http://www.w3.org/2000/svg">
  <path d="M4 18H20M6 18V10C6 8.89543 6.89543 8 8 8H16C17.1046 8 18 8.89543 18 10V18M9 22H15M12 18V22" stroke="white" stroke-width="1.2" stroke-linecap="round"/>
  <path d="M7 8V6C7 5.44772 7.44772 5 8 5H16C16.5523 5 17 5.44772 17 6V8" stroke="white" stroke-width="1.2" stroke-linecap="round"/>
  <circle cx="12" cy="12" r="3" stroke="#EAB308" stroke-width="1" stroke-dasharray="2 2"/>
  <path d="M10 16C10 16 10.5 14 12 14C13.5 14 14 16 14 16" stroke="#EAB308" stroke-width="1" stroke-dasharray="2 2"/>
</svg>
